<mxfile host="app.diagrams.net" modified="2021-10-21T08:49:57.464Z" agent="5.0 (Macintosh; Intel Mac OS X 10_15_7) AppleWebKit/537.36 (KHTML, like Gecko) Chrome/86.0.4240.193 Safari/537.36" etag="PaiEf4nHs6dkx53xXBXq" version="15.5.6" type="github">
  <diagram id="DOd0cHCl5EjLGc40jwcZ" name="Page-1">
    <mxGraphModel dx="1426" dy="771" grid="1" gridSize="10" guides="1" tooltips="1" connect="1" arrows="1" fold="1" page="1" pageScale="1" pageWidth="827" pageHeight="1169" math="0" shadow="0">
      <root>
        <mxCell id="0" />
        <mxCell id="1" parent="0" />
        <mxCell id="nLB4VukMpMYSrF9otfOi-7" style="edgeStyle=orthogonalEdgeStyle;rounded=0;orthogonalLoop=1;jettySize=auto;html=1;exitX=1;exitY=0.5;exitDx=0;exitDy=0;entryX=0;entryY=0.5;entryDx=0;entryDy=0;" edge="1" parent="1" source="nLB4VukMpMYSrF9otfOi-1" target="nLB4VukMpMYSrF9otfOi-2">
          <mxGeometry relative="1" as="geometry" />
        </mxCell>
        <mxCell id="nLB4VukMpMYSrF9otfOi-1" value="过户保证金冻结" style="rounded=0;whiteSpace=wrap;html=1;" vertex="1" parent="1">
          <mxGeometry x="60" y="220" width="120" height="60" as="geometry" />
        </mxCell>
        <mxCell id="nLB4VukMpMYSrF9otfOi-4" style="edgeStyle=orthogonalEdgeStyle;rounded=0;orthogonalLoop=1;jettySize=auto;html=1;exitX=1;exitY=0.5;exitDx=0;exitDy=0;entryX=0;entryY=0.5;entryDx=0;entryDy=0;" edge="1" parent="1" source="nLB4VukMpMYSrF9otfOi-2" target="nLB4VukMpMYSrF9otfOi-3">
          <mxGeometry relative="1" as="geometry" />
        </mxCell>
        <mxCell id="nLB4VukMpMYSrF9otfOi-22" value="" style="edgeStyle=orthogonalEdgeStyle;rounded=0;orthogonalLoop=1;jettySize=auto;html=1;" edge="1" parent="1" source="nLB4VukMpMYSrF9otfOi-2" target="nLB4VukMpMYSrF9otfOi-6">
          <mxGeometry relative="1" as="geometry" />
        </mxCell>
        <mxCell id="nLB4VukMpMYSrF9otfOi-2" value="冻结金额是否为0" style="rounded=0;whiteSpace=wrap;html=1;" vertex="1" parent="1">
          <mxGeometry x="250" y="220" width="120" height="60" as="geometry" />
        </mxCell>
        <mxCell id="nLB4VukMpMYSrF9otfOi-3" value="冻结成功" style="rounded=0;whiteSpace=wrap;html=1;fillColor=#f8cecc;strokeColor=#b85450;" vertex="1" parent="1">
          <mxGeometry x="450" y="220" width="120" height="60" as="geometry" />
        </mxCell>
        <mxCell id="nLB4VukMpMYSrF9otfOi-5" value="是" style="text;html=1;align=center;verticalAlign=middle;resizable=0;points=[];autosize=1;strokeColor=none;fillColor=none;" vertex="1" parent="1">
          <mxGeometry x="395" y="220" width="30" height="20" as="geometry" />
        </mxCell>
        <mxCell id="nLB4VukMpMYSrF9otfOi-9" style="edgeStyle=orthogonalEdgeStyle;rounded=0;orthogonalLoop=1;jettySize=auto;html=1;exitX=1;exitY=0.5;exitDx=0;exitDy=0;entryX=0;entryY=0.5;entryDx=0;entryDy=0;" edge="1" parent="1" source="nLB4VukMpMYSrF9otfOi-6" target="nLB4VukMpMYSrF9otfOi-8">
          <mxGeometry relative="1" as="geometry" />
        </mxCell>
        <mxCell id="nLB4VukMpMYSrF9otfOi-24" style="edgeStyle=orthogonalEdgeStyle;rounded=0;orthogonalLoop=1;jettySize=auto;html=1;" edge="1" parent="1" source="nLB4VukMpMYSrF9otfOi-6" target="nLB4VukMpMYSrF9otfOi-11">
          <mxGeometry relative="1" as="geometry" />
        </mxCell>
        <mxCell id="nLB4VukMpMYSrF9otfOi-6" value="查询是否有冻结记录" style="rounded=0;whiteSpace=wrap;html=1;" vertex="1" parent="1">
          <mxGeometry x="250" y="320" width="120" height="60" as="geometry" />
        </mxCell>
        <mxCell id="nLB4VukMpMYSrF9otfOi-8" value="用户已经冻结" style="rounded=0;whiteSpace=wrap;html=1;fillColor=#f8cecc;strokeColor=#b85450;" vertex="1" parent="1">
          <mxGeometry x="450" y="320" width="120" height="60" as="geometry" />
        </mxCell>
        <mxCell id="nLB4VukMpMYSrF9otfOi-10" value="是" style="text;html=1;align=center;verticalAlign=middle;resizable=0;points=[];autosize=1;strokeColor=none;fillColor=none;" vertex="1" parent="1">
          <mxGeometry x="395" y="320" width="30" height="20" as="geometry" />
        </mxCell>
        <mxCell id="nLB4VukMpMYSrF9otfOi-18" style="edgeStyle=orthogonalEdgeStyle;rounded=0;orthogonalLoop=1;jettySize=auto;html=1;exitX=1;exitY=0.5;exitDx=0;exitDy=0;entryX=0;entryY=0.5;entryDx=0;entryDy=0;" edge="1" parent="1" source="nLB4VukMpMYSrF9otfOi-11" target="nLB4VukMpMYSrF9otfOi-12">
          <mxGeometry relative="1" as="geometry" />
        </mxCell>
        <mxCell id="nLB4VukMpMYSrF9otfOi-19" style="edgeStyle=orthogonalEdgeStyle;rounded=0;orthogonalLoop=1;jettySize=auto;html=1;exitX=0.5;exitY=1;exitDx=0;exitDy=0;entryX=0.5;entryY=0;entryDx=0;entryDy=0;" edge="1" parent="1" source="nLB4VukMpMYSrF9otfOi-11" target="nLB4VukMpMYSrF9otfOi-13">
          <mxGeometry relative="1" as="geometry" />
        </mxCell>
        <mxCell id="nLB4VukMpMYSrF9otfOi-11" value="是否是拍品冻结" style="rounded=0;whiteSpace=wrap;html=1;" vertex="1" parent="1">
          <mxGeometry x="250" y="420" width="120" height="60" as="geometry" />
        </mxCell>
        <mxCell id="nLB4VukMpMYSrF9otfOi-12" value="是否是拍品冻结" style="rounded=0;whiteSpace=wrap;html=1;" vertex="1" parent="1">
          <mxGeometry x="580" y="420" width="120" height="60" as="geometry" />
        </mxCell>
        <mxCell id="nLB4VukMpMYSrF9otfOi-15" style="edgeStyle=orthogonalEdgeStyle;rounded=0;orthogonalLoop=1;jettySize=auto;html=1;exitX=0;exitY=0.5;exitDx=0;exitDy=0;entryX=1;entryY=0.5;entryDx=0;entryDy=0;" edge="1" parent="1" source="nLB4VukMpMYSrF9otfOi-13" target="nLB4VukMpMYSrF9otfOi-14">
          <mxGeometry relative="1" as="geometry" />
        </mxCell>
        <mxCell id="nLB4VukMpMYSrF9otfOi-25" style="edgeStyle=orthogonalEdgeStyle;rounded=0;orthogonalLoop=1;jettySize=auto;html=1;exitX=0.5;exitY=1;exitDx=0;exitDy=0;" edge="1" parent="1" source="nLB4VukMpMYSrF9otfOi-13" target="nLB4VukMpMYSrF9otfOi-16">
          <mxGeometry relative="1" as="geometry" />
        </mxCell>
        <mxCell id="nLB4VukMpMYSrF9otfOi-13" value="冻结金额 &amp;gt; 账户余额" style="rounded=0;whiteSpace=wrap;html=1;" vertex="1" parent="1">
          <mxGeometry x="250" y="530" width="120" height="60" as="geometry" />
        </mxCell>
        <mxCell id="nLB4VukMpMYSrF9otfOi-14" value="余额不足" style="rounded=0;whiteSpace=wrap;html=1;fillColor=#f8cecc;strokeColor=#b85450;" vertex="1" parent="1">
          <mxGeometry x="70" y="530" width="120" height="60" as="geometry" />
        </mxCell>
        <mxCell id="nLB4VukMpMYSrF9otfOi-26" style="edgeStyle=orthogonalEdgeStyle;rounded=0;orthogonalLoop=1;jettySize=auto;html=1;exitX=0.5;exitY=1;exitDx=0;exitDy=0;entryX=0.5;entryY=0;entryDx=0;entryDy=0;" edge="1" parent="1" source="nLB4VukMpMYSrF9otfOi-16" target="nLB4VukMpMYSrF9otfOi-17">
          <mxGeometry relative="1" as="geometry" />
        </mxCell>
        <mxCell id="nLB4VukMpMYSrF9otfOi-16" value="更新账户的余额&lt;br&gt;和可用金额" style="rounded=0;whiteSpace=wrap;html=1;" vertex="1" parent="1">
          <mxGeometry x="250" y="630" width="120" height="60" as="geometry" />
        </mxCell>
        <mxCell id="nLB4VukMpMYSrF9otfOi-17" value="往t_deposit_trans_freeze表中插入一条冻结记录" style="rounded=0;whiteSpace=wrap;html=1;" vertex="1" parent="1">
          <mxGeometry x="240" y="730" width="140" height="60" as="geometry" />
        </mxCell>
        <mxCell id="nLB4VukMpMYSrF9otfOi-20" value="是" style="text;html=1;align=center;verticalAlign=middle;resizable=0;points=[];autosize=1;strokeColor=none;fillColor=none;" vertex="1" parent="1">
          <mxGeometry x="315" y="490" width="30" height="20" as="geometry" />
        </mxCell>
        <mxCell id="nLB4VukMpMYSrF9otfOi-21" value="否，即店铺冻结" style="text;html=1;align=center;verticalAlign=middle;resizable=0;points=[];autosize=1;strokeColor=none;fillColor=none;" vertex="1" parent="1">
          <mxGeometry x="425" y="420" width="100" height="20" as="geometry" />
        </mxCell>
      </root>
    </mxGraphModel>
  </diagram>
</mxfile>
